<?xml version="1.0" encoding="UTF-8"?>
<svg version="1.1" xmlns="http://www.w3.org/2000/svg" width="431" height="424">
<path d="M0 0 C142.23 0 284.46 0 431 0 C431 139.92 431 279.84 431 424 C288.77 424 146.54 424 0 424 C0 284.08 0 144.16 0 0 Z " fill="#FBFBFA" transform="translate(0,0)"/>
<path d="M0 0 C-0.73540765 3.33384804 -1.69869475 5.42253812 -4 8 C-4.66 8 -5.32 8 -6 8 C-6.24621094 8.55429688 -6.49242187 9.10859375 -6.74609375 9.6796875 C-10.8859996 17.34044787 -17.6962402 23.83205856 -23.5234375 30.24609375 C-26.53167672 33.5912178 -29.49393143 36.97294539 -32.4375 40.375 C-33.21830933 41.26795776 -33.21830933 41.26795776 -34.01489258 42.17895508 C-36.44078305 44.99509923 -38.46169623 47.6157317 -40 51 C-41.1132163 52.14695013 -42.23293639 53.28839771 -43.38671875 54.39453125 C-47.10225809 58.09207767 -50.51319556 62.088559 -54 66 C-54.65871094 66.71929687 -55.31742188 67.43859375 -55.99609375 68.1796875 C-56.59550781 68.84226562 -57.19492188 69.50484375 -57.8125 70.1875 C-58.33457031 70.75855469 -58.85664063 71.32960938 -59.39453125 71.91796875 C-61.56691852 74.73520091 -63.23496779 77.91119363 -65 81 C-43.88 81 -22.76 81 -1 81 C-1 81.66 -1 82.32 -1 83 C-2.79296875 84.33203125 -2.79296875 84.33203125 -5.1875 85.8125 C-8.99248356 88.16616313 -11.87932292 90.79573335 -15 94 C-17.2494017 96.12748106 -19.53115722 98.21936164 -21.8125 100.3125 C-22.40998047 100.86228516 -23.00746094 101.41207031 -23.62304688 101.97851562 C-25.08114922 103.31996978 -26.5404504 104.66012065 -28 106 C-25.18362511 107.87758326 -22.40084603 109.36598635 -19.375 110.875 C-18.39273438 111.36742187 -17.41046875 111.85984375 -16.3984375 112.3671875 C-13.90394709 113.56568979 -11.41164959 114.70945512 -8.87890625 115.8203125 C-1.9379357 118.88070258 4.85650396 122.25380519 11.67382812 125.578125 C17.33742479 128.31824019 23.00038639 130.89861763 28.87573242 133.15283203 C32.3652787 134.54447961 35.66545439 136.27665962 39 138 C41.06072322 139.04517727 43.12334302 140.08662066 45.1875 141.125 C46.66283203 141.87136719 46.66283203 141.87136719 48.16796875 142.6328125 C50.94377842 144.02893718 50.94377842 144.02893718 53.72265625 145.00390625 C57.13990852 146.49858777 58.23844381 148.79145122 60 152 C64.94411248 171.41865229 56.43683332 196.83955506 47 214 C41.47118879 219.91837975 33.38889434 222.77011565 26.15234375 226.07421875 C22.06071147 227.95035061 18.13036966 230.03974705 14.203125 232.23828125 C9.6725042 234.73012269 5.08448823 237.10908115 0.5 239.5 C-11.65787553 245.29707662 -11.65787553 245.29707662 -22.90234375 252.53125 C-25 254 -25 254 -27.69921875 254.8828125 C-32.06303433 256.35979623 -35.83081902 258.58160525 -39.8125 260.875 C-45.1059157 263.91657049 -50.38224306 266.69260873 -55.98852539 269.11523438 C-58.50487856 270.22207548 -60.90781235 271.48167606 -63.3125 272.8125 C-64.23160156 273.32039063 -65.15070313 273.82828125 -66.09765625 274.3515625 C-69.16934536 276.09618269 -72.20989003 277.88848361 -75.25 279.6875 C-79.4159079 282.13583768 -83.54430688 284.12391869 -88 286 C-93.78908264 289.00147342 -99.52249252 292.09983597 -105.125 295.4375 C-108 297 -108 297 -111 297 C-112.54296875 295.53125 -112.54296875 295.53125 -114.1875 293.5 C-116.678546 290.52123341 -119.22448657 287.71623062 -122 285 C-125.25029983 281.79970478 -128.24724245 278.45775424 -131.21875 275 C-133.70013007 272.21388904 -136.36184201 269.6282832 -139.01953125 267.01171875 C-141.61088992 264.37947079 -144.00738425 261.6016185 -146.41796875 258.8046875 C-149.04603114 255.80674966 -151.86804262 253.02069661 -154.828125 250.3515625 C-157.6646208 247.7110847 -159.71922205 245.62840779 -161.3125 242.0625 C-160.82773343 237.31178759 -157.99765507 234.55924109 -155 231 C-154.34 230.01 -153.68 229.02 -153 228 C-149.56086948 228.56209445 -148.19798944 229.52887772 -146.0625 232.25 C-143.56560236 235.39372628 -140.84771038 238.16853904 -138 241 C-135.68886511 243.41937568 -133.40597939 245.8647096 -131.125 248.3125 C-130.19192017 249.31216797 -130.19192017 249.31216797 -129.23999023 250.33203125 C-125.58947145 254.25503399 -122.01400913 258.2265414 -118.5234375 262.29296875 C-116.28878655 264.79692379 -113.89666224 267.12930251 -111.48046875 269.45703125 C-110 271 -110 271 -108 274 C-102.59558303 273.46966002 -98.77390378 271.53190034 -94.125 268.9375 C-92.60892273 268.11301875 -91.09197465 267.29013703 -89.57421875 266.46875 C-88.81028809 266.05367188 -88.04635742 265.63859375 -87.25927734 265.2109375 C-83.8522681 263.38483356 -80.40042941 261.65459125 -76.9375 259.9375 C-76.28144775 259.61120605 -75.62539551 259.28491211 -74.94946289 258.94873047 C-72.30786115 257.63652413 -69.66413508 256.32862728 -67.02050781 255.02050781 C-65.03358313 254.03634847 -63.04771196 253.05010944 -61.0625 252.0625 C-60.08494751 251.57668457 -60.08494751 251.57668457 -59.08764648 251.08105469 C-55.53047267 249.30224958 -52.00194278 247.47966906 -48.49609375 245.6015625 C-47.74513428 245.19929443 -46.9941748 244.79702637 -46.22045898 244.38256836 C-44.78899112 243.61214118 -43.35991635 242.83724271 -41.93383789 242.05688477 C-38.59564368 240.25694612 -35.32598717 238.69902437 -31.75 237.42578125 C-28.68932829 236.33059355 -26.57820214 234.99972738 -24 233 C-21.27796253 231.5415256 -18.48623445 230.24131838 -15.6875 228.9375 C-14.95337891 228.58623047 -14.21925781 228.23496094 -13.46289062 227.87304688 C-9.03513159 225.794711 -4.7404705 224.2086008 0 223 C0 222.34 0 221.68 0 221 C1.69388021 220.15305989 3.38778307 219.30616506 5.08178711 218.45947266 C6.53351226 217.73336488 7.98484396 217.00646997 9.43579102 216.27880859 C12.84831426 214.56858638 16.26330753 212.86593636 19.69921875 211.203125 C21.30216797 210.42195313 21.30216797 210.42195313 22.9375 209.625 C23.89527344 209.16351563 24.85304688 208.70203125 25.83984375 208.2265625 C28.13892525 207.18629129 28.13892525 207.18629129 29 205 C29.66 205 30.32 205 31 205 C31.2165625 203.39125 31.2165625 203.39125 31.4375 201.75 C31.83749442 199.08337051 32.27591924 196.58600271 33 194 C27.74380466 196.15744488 22.79788467 198.65694096 17.8125 201.375 C12.95108649 203.99204 8.14123122 206.46626261 3 208.5 C-2.88713095 210.83049184 -8.3658753 213.77321006 -13.93139648 216.77124023 C-18.08185973 219.00172318 -22.22813793 221.07050988 -26.56640625 222.9140625 C-35.27988645 226.80226073 -43.86200246 231.19049431 -52.10546875 235.9921875 C-54 237 -54 237 -56.26171875 237.89453125 C-59.82444576 239.33283616 -63.20262323 241.07099809 -66.625 242.8125 C-84.87239583 252 -84.87239583 252 -89 252 C-89 252.66 -89 253.32 -89 254 C-93.455 254.99 -93.455 254.99 -98 256 C-98 256.66 -98 257.32 -98 258 C-98.99 258 -99.98 258 -101 258 C-100.67 258.66 -100.34 259.32 -100 260 C-96.7 260 -93.4 260 -90 260 C-91 262 -91 262 -92.71484375 262.73046875 C-95.3760201 263.27767021 -97.30228155 263.43276743 -100 263 C-103.82677933 260.47397722 -106.85503669 257.31707573 -110 254 C-111.26905485 252.74819444 -112.53967701 251.49797395 -113.8125 250.25 C-114.87585709 249.16750794 -115.9382802 248.08409797 -117 247 C-118.6658564 245.33252346 -120.33266511 243.66599817 -122 242 C-129.66666667 234.33333333 -137.33333333 226.66666667 -145 219 C-144.34 217.68 -143.68 216.36 -143 215 C-140.04189053 214.72268719 -138.5215856 214.61272886 -136.09057617 216.41772461 C-135.49736572 217.07264893 -134.90415527 217.72757324 -134.29296875 218.40234375 C-133.62765137 219.12389648 -132.96233398 219.84544922 -132.27685547 220.58886719 C-131.58736816 221.36391602 -130.89788086 222.13896484 -130.1875 222.9375 C-129.47480957 223.71641602 -128.76211914 224.49533203 -128.02783203 225.29785156 C-123.82528357 229.90536063 -119.70295074 234.5836247 -115.6015625 239.28125 C-114.06964519 240.92525882 -112.49620644 242.33927164 -110.75 243.75 C-108 246 -108 246 -105.8125 248.75 C-104.12619585 251.2581635 -104.12619585 251.2581635 -101 252 C-100.63355422 250.44033408 -100.28239138 248.87707349 -99.9375 247.3125 C-99.74027344 246.44238281 -99.54304688 245.57226562 -99.33984375 244.67578125 C-98.75399907 240.0630961 -99.33623022 237.85693029 -102.21484375 234.140625 C-103.11332031 233.18671875 -104.01179688 232.2328125 -104.9375 231.25 C-105.83339844 230.28578125 -106.72929687 229.3215625 -107.65234375 228.328125 C-109.77174668 225.98401738 -109.77174668 225.98401738 -112 225 C-112 224.01 -112 223.02 -112 222 C-112.57105469 221.76667969 -113.14210938 221.53335938 -113.73046875 221.29296875 C-116.54340722 219.69041688 -118.2002773 217.76237819 -120.3125 215.3125 C-124.0598238 211.03782103 -127.92269538 206.95931189 -132 203 C-139.26214446 206.18825854 -144.40630961 213.32377824 -149.45703125 219.23828125 C-151 221 -151 221 -152.625 222.59375 C-154.23248464 224.23776839 -155.06445927 225.91302452 -156 228 C-156.66 228 -157.32 228 -158 228 C-158.08378906 228.55816406 -158.16757813 229.11632812 -158.25390625 229.69140625 C-159.23600808 232.73026582 -160.8622243 234.51208991 -162.9375 236.9375 C-166.48599207 241.16621419 -169.94722368 245.43644048 -173.3125 249.8125 C-174.11300781 250.85019531 -174.91351563 251.88789063 -175.73828125 252.95703125 C-177.23059902 254.96483011 -178.67274733 257.01103584 -180.05859375 259.09375 C-181.83880809 261.75869863 -183.71686545 264.21329287 -185.75 266.6875 C-189.28906129 271.06389927 -192.62359978 275.5521582 -195.9140625 280.1171875 C-198.19011013 283.26273648 -200.49191397 286.38723843 -202.8125 289.5 C-203.54082031 290.4796875 -204.26914063 291.459375 -205.01953125 292.46875 C-206.59152597 294.47792668 -208.14062247 296.2637989 -210 298 C-209.63550322 293.80828702 -208.8570944 290.41706145 -207.203125 286.54296875 C-204.74637827 280.53660859 -202.86717716 274.39805217 -201 268.1875 C-200.33333333 265.99348958 -199.66666667 263.79947917 -199 261.60546875 C-198.66798584 260.5086377 -198.33597168 259.41180664 -197.99389648 258.28173828 C-194.82381293 247.81446656 -191.53836419 237.38994791 -188.16333008 226.98730469 C-187.43401828 224.73926793 -186.70615488 222.49076611 -185.97851562 220.2421875 C-184.65680298 216.15999919 -183.3291363 212.07977717 -182 208 C-181.68498535 207.02724121 -181.3699707 206.05448242 -181.04541016 205.05224609 C-180.0278108 201.94169408 -179.01696584 199.03251785 -177.5 196.125 C-176.10767145 193.22431552 -175.53624795 190.92918201 -174.875 187.8125 C-173.35106023 181.93898214 -170.41590276 178.31748618 -166.45703125 173.80859375 C-164.00489499 171.00559539 -161.77695405 168.11824961 -159.5625 165.125 C-156.41312177 160.88566304 -153.22862942 156.67892185 -150 152.5 C-142.78732149 143.14666768 -135.71141702 133.72170284 -129 124 C-129.80542236 123.94521484 -130.61084473 123.89042969 -131.44067383 123.83398438 C-140.44113457 123.20795388 -149.43003367 122.48455513 -158.41772461 121.69775391 C-160.72286392 121.49691892 -163.0284087 121.30122288 -165.33398438 121.10546875 C-166.80992326 120.97687692 -168.28583581 120.84798237 -169.76171875 120.71875 C-170.44602463 120.661427 -171.13033051 120.604104 -171.83537292 120.54504395 C-174.74055315 120.2854855 -177.21866784 119.92711072 -180 119 C-178.37426588 110.04803312 -167.99784522 102.81156016 -161.75512695 96.56982422 C-160.16783666 94.9803091 -158.58876447 93.38290343 -157.00976562 91.78515625 C-156.00048793 90.77295074 -154.99073996 89.76121389 -153.98046875 88.75 C-152.61764771 87.38101563 -152.61764771 87.38101563 -151.22729492 85.984375 C-149 84 -149 84 -147 84 C-146.7525 83.42765625 -146.505 82.8553125 -146.25 82.265625 C-144.80683801 79.64989389 -143.11783778 77.85226544 -141 75.75 C-139.948125 74.69039062 -139.948125 74.69039062 -138.875 73.609375 C-137 72 -137 72 -135 72 C-134.73173904 71.40642197 -134.46347809 70.81284393 -134.18708801 70.20127869 C-132.99047273 67.9823331 -131.7889653 66.54701227 -130.0065918 64.77954102 C-129.40223801 64.17533829 -128.79788422 63.57113556 -128.17521667 62.94862366 C-127.52313736 62.30686691 -126.87105804 61.66511017 -126.19921875 61.00390625 C-125.52582962 60.33334702 -124.85244049 59.66278778 -124.15864563 58.97190857 C-122.00625258 56.83069241 -119.84702262 54.69652308 -117.6875 52.5625 C-116.24498324 51.13001983 -114.80292078 49.69708203 -113.36132812 48.26367188 C-110.70422501 45.62287978 -108.04451765 42.98477364 -105.3815918 40.34985352 C-99.85636978 34.88361489 -99.85636978 34.88361489 -94.4375 29.3125 C-92.30387276 27.28828954 -90.69176935 26.09664677 -88 25 C-88 24.34 -88 23.68 -88 23 C-86.42578125 21.44921875 -86.42578125 21.44921875 -84.3125 19.6875 C-80.1827472 16.16956243 -76.29980184 12.65429325 -72.9375 8.375 C-70.14609363 4.95327607 -68.34278527 3.21204086 -63.8815918 2.50756836 C-62.66640869 2.45221924 -61.45122559 2.39687012 -60.19921875 2.33984375 C-59.20183937 2.28762161 -59.20183937 2.28762161 -58.18431091 2.23434448 C-56.01912026 2.12306262 -53.85355287 2.03033084 -51.6875 1.9375 C-48.68848064 1.78995155 -45.68995999 1.63325396 -42.69140625 1.4765625 C-41.94679138 1.43894302 -41.20217651 1.40132355 -40.43499756 1.36256409 C-33.09201027 0.98049332 -25.78036184 0.32348047 -18.47143555 -0.47875977 C-12.19456171 -1.10420259 -6.25776561 -0.75483646 0 0 Z " fill="#040404" transform="translate(294,83)"/>
<path d="M0 0 C-0.73540765 3.33384804 -1.69869475 5.42253812 -4 8 C-4.66 8 -5.32 8 -6 8 C-6.24621094 8.55429688 -6.49242187 9.10859375 -6.74609375 9.6796875 C-10.8859996 17.34044787 -17.6962402 23.83205856 -23.5234375 30.24609375 C-26.53167672 33.5912178 -29.49393143 36.97294539 -32.4375 40.375 C-33.21830933 41.26795776 -33.21830933 41.26795776 -34.01489258 42.17895508 C-36.44078305 44.99509923 -38.46169623 47.6157317 -40 51 C-41.1132163 52.14695013 -42.23293639 53.28839771 -43.38671875 54.39453125 C-47.10225809 58.09207767 -50.51319556 62.088559 -54 66 C-54.65871094 66.71929687 -55.31742188 67.43859375 -55.99609375 68.1796875 C-56.59550781 68.84226562 -57.19492188 69.50484375 -57.8125 70.1875 C-58.33457031 70.75855469 -58.85664063 71.32960938 -59.39453125 71.91796875 C-61.56691852 74.73520091 -63.23496779 77.91119363 -65 81 C-43.88 81 -22.76 81 -1 81 C-1 81.66 -1 82.32 -1 83 C-2.79296875 84.33203125 -2.79296875 84.33203125 -5.1875 85.8125 C-8.99493306 88.16767833 -11.87870719 90.79162266 -15 94 C-17.43764047 96.33464654 -19.90675023 98.63528711 -22.375 100.9375 C-23.00921875 101.53240234 -23.6434375 102.12730469 -24.296875 102.74023438 C-27.44608281 105.68056616 -30.62054833 108.59105274 -33.8515625 111.44140625 C-34.6880835 112.18112671 -34.6880835 112.18112671 -35.54150391 112.93579102 C-37 114 -37 114 -39 114 C-39 114.66 -39 115.32 -39 116 C-40.3984375 117.41015625 -40.3984375 117.41015625 -42.375 119.0625 C-45.65241262 121.84685054 -48.87628578 124.67392601 -52.0625 127.5625 C-55.02262945 130.23940719 -58.00689399 132.87029003 -61.0625 135.4375 C-63.99029015 137.66388997 -63.99029015 137.66388997 -65 140 C-63.515 140.185625 -63.515 140.185625 -62 140.375 C-58.74138527 140.83496351 -55.63774905 141.61790706 -52.45703125 142.46484375 C-48.01418964 143.43252149 -43.48821882 143.89648768 -38.9765625 144.4375 C-36 145 -36 145 -34 147 C-38.84852594 150.66333071 -43.82757126 153.60882382 -49.18359375 156.47265625 C-55.25512226 159.76526047 -61.10019868 163.44208076 -66.97583008 167.06884766 C-81.45024272 176 -81.45024272 176 -84 176 C-84 176.66 -84 177.32 -84 178 C-85.00804687 178.40089844 -86.01609375 178.80179688 -87.0546875 179.21484375 C-91.0438932 180.92435993 -94.53437044 183.14375723 -98.125 185.5625 C-101.95251062 188.13216277 -105.61788056 190.47039227 -110 192 C-101.47891301 183.29664377 -91.73764688 176.24813688 -81.80273438 169.27490234 C-80.00872512 168.00617045 -78.22915522 166.71953586 -76.453125 165.42578125 C-68.84476009 159.89615853 -61.08629247 154.80879187 -53 150 C-55.92830512 147.07169488 -59.04324204 147.25945954 -63 147 C-64.14339844 146.92265625 -65.28679687 146.8453125 -66.46484375 146.765625 C-73.62457597 146.29137179 -73.62457597 146.29137179 -79.9375 149.0625 C-80.618125 150.031875 -81.29875 151.00125 -82 152 C-83.08290283 153.14548264 -84.18916519 154.26913928 -85.3125 155.375 C-85.910625 155.97441406 -86.50875 156.57382813 -87.125 157.19140625 C-88.96877233 158.96987831 -90.86747296 160.64589417 -92.8125 162.3125 C-97.09528748 165.9834607 -100.9882707 169.99710471 -104.8984375 174.05859375 C-107 176 -107 176 -109 176 C-109.23589844 176.57363281 -109.47179687 177.14726562 -109.71484375 177.73828125 C-111.28832089 180.50740972 -113.14803411 182.11309973 -115.5625 184.1875 C-119.12424189 187.32017865 -122.61546695 190.48830709 -126 193.8125 C-127.0828125 194.87404297 -127.0828125 194.87404297 -128.1875 195.95703125 C-130.05155242 197.87688802 -130.05155242 197.87688802 -131.01171875 200.05078125 C-132.2350561 202.46360867 -133.72179392 203.67205394 -135.8125 205.375 C-139.33965903 208.35462171 -142.11138942 211.40875442 -145 215 C-147.3507001 217.40803425 -149.73922941 219.75413058 -152.1875 222.0625 C-153.96268553 223.96011212 -154.9821385 225.62498984 -156 228 C-156.66 228 -157.32 228 -158 228 C-158.08378906 228.55816406 -158.16757813 229.11632812 -158.25390625 229.69140625 C-159.23600808 232.73026582 -160.8622243 234.51208991 -162.9375 236.9375 C-166.48599207 241.16621419 -169.94722368 245.43644048 -173.3125 249.8125 C-174.11300781 250.85019531 -174.91351563 251.88789063 -175.73828125 252.95703125 C-177.23059902 254.96483011 -178.67274733 257.01103584 -180.05859375 259.09375 C-181.83880809 261.75869863 -183.71686545 264.21329287 -185.75 266.6875 C-189.28906129 271.06389927 -192.62359978 275.5521582 -195.9140625 280.1171875 C-198.19011013 283.26273648 -200.49191397 286.38723843 -202.8125 289.5 C-203.54082031 290.4796875 -204.26914063 291.459375 -205.01953125 292.46875 C-206.59152597 294.47792668 -208.14062247 296.2637989 -210 298 C-209.63550322 293.80828702 -208.8570944 290.41706145 -207.203125 286.54296875 C-204.74637827 280.53660859 -202.86717716 274.39805217 -201 268.1875 C-200.33333333 265.99348958 -199.66666667 263.79947917 -199 261.60546875 C-198.66798584 260.5086377 -198.33597168 259.41180664 -197.99389648 258.28173828 C-194.82381293 247.81446656 -191.53836419 237.38994791 -188.16333008 226.98730469 C-187.43401828 224.73926793 -186.70615488 222.49076611 -185.97851562 220.2421875 C-184.65680298 216.15999919 -183.3291363 212.07977717 -182 208 C-181.68498535 207.02724121 -181.3699707 206.05448242 -181.04541016 205.05224609 C-180.0278108 201.94169408 -179.01696584 199.03251785 -177.5 196.125 C-176.10767145 193.22431552 -175.53624795 190.92918201 -174.875 187.8125 C-173.35106023 181.93898214 -170.41590276 178.31748618 -166.45703125 173.80859375 C-164.00489499 171.00559539 -161.77695405 168.11824961 -159.5625 165.125 C-156.41312177 160.88566304 -153.22862942 156.67892185 -150 152.5 C-142.78732149 143.14666768 -135.71141702 133.72170284 -129 124 C-129.80542236 123.94521484 -130.61084473 123.89042969 -131.44067383 123.83398438 C-140.44113457 123.20795388 -149.43003367 122.48455513 -158.41772461 121.69775391 C-160.72286392 121.49691892 -163.0284087 121.30122288 -165.33398438 121.10546875 C-166.80992326 120.97687692 -168.28583581 120.84798237 -169.76171875 120.71875 C-170.44602463 120.661427 -171.13033051 120.604104 -171.83537292 120.54504395 C-174.74055315 120.2854855 -177.21866784 119.92711072 -180 119 C-178.37426588 110.04803312 -167.99784522 102.81156016 -161.75512695 96.56982422 C-160.16783666 94.9803091 -158.58876447 93.38290343 -157.00976562 91.78515625 C-156.00048793 90.77295074 -154.99073996 89.76121389 -153.98046875 88.75 C-152.61764771 87.38101563 -152.61764771 87.38101563 -151.22729492 85.984375 C-149 84 -149 84 -147 84 C-146.7525 83.42765625 -146.505 82.8553125 -146.25 82.265625 C-144.80683801 79.64989389 -143.11783778 77.85226544 -141 75.75 C-139.948125 74.69039062 -139.948125 74.69039062 -138.875 73.609375 C-137 72 -137 72 -135 72 C-134.73173904 71.40642197 -134.46347809 70.81284393 -134.18708801 70.20127869 C-132.99047273 67.9823331 -131.7889653 66.54701227 -130.0065918 64.77954102 C-129.40223801 64.17533829 -128.79788422 63.57113556 -128.17521667 62.94862366 C-127.52313736 62.30686691 -126.87105804 61.66511017 -126.19921875 61.00390625 C-125.52582962 60.33334702 -124.85244049 59.66278778 -124.15864563 58.97190857 C-122.00625258 56.83069241 -119.84702262 54.69652308 -117.6875 52.5625 C-116.24498324 51.13001983 -114.80292078 49.69708203 -113.36132812 48.26367188 C-110.70422501 45.62287978 -108.04451765 42.98477364 -105.3815918 40.34985352 C-99.85636978 34.88361489 -99.85636978 34.88361489 -94.4375 29.3125 C-92.30387276 27.28828954 -90.69176935 26.09664677 -88 25 C-88 24.34 -88 23.68 -88 23 C-86.42578125 21.44921875 -86.42578125 21.44921875 -84.3125 19.6875 C-80.1827472 16.16956243 -76.29980184 12.65429325 -72.9375 8.375 C-70.14609363 4.95327607 -68.34278527 3.21204086 -63.8815918 2.50756836 C-62.66640869 2.45221924 -61.45122559 2.39687012 -60.19921875 2.33984375 C-59.20183937 2.28762161 -59.20183937 2.28762161 -58.18431091 2.23434448 C-56.01912026 2.12306262 -53.85355287 2.03033084 -51.6875 1.9375 C-48.68848064 1.78995155 -45.68995999 1.63325396 -42.69140625 1.4765625 C-41.94679138 1.43894302 -41.20217651 1.40132355 -40.43499756 1.36256409 C-33.09201027 0.98049332 -25.78036184 0.32348047 -18.47143555 -0.47875977 C-12.19456171 -1.10420259 -6.25776561 -0.75483646 0 0 Z " fill="#539DA9" transform="translate(294,83)"/>
<path d="M0 0 C0 0.99 0 1.98 0 3 C-1.12148438 3.25523438 -1.12148438 3.25523438 -2.265625 3.515625 C-3.25046875 3.75796875 -4.2353125 4.0003125 -5.25 4.25 C-6.22453125 4.48203125 -7.1990625 4.7140625 -8.203125 4.953125 C-11.32475479 6.12155626 -12.75366662 7.59463417 -15 10 C-15.66 10 -16.32 10 -17 10 C-17.34804688 10.84304687 -17.34804688 10.84304687 -17.703125 11.703125 C-19.32788054 14.58070409 -21.35729844 16.47330821 -23.75 18.75 C-27.328156 22.25159061 -30.40208798 25.70944779 -33.2890625 29.78125 C-36.0645722 33.38054112 -39.1954023 36.65457084 -42.30639648 39.96435547 C-44.96345082 42.7559648 -44.96345082 42.7559648 -47 46 C-47.66 46 -48.32 46 -49 46 C-49.35578125 46.82757813 -49.35578125 46.82757813 -49.71875 47.671875 C-51.31245143 50.56774711 -53.28917273 52.79512037 -55.5 55.25 C-56.2940625 56.14203125 -57.088125 57.0340625 -57.90625 57.953125 C-60 60 -60 60 -62 60 C-62.23976562 60.556875 -62.47953125 61.11375 -62.7265625 61.6875 C-64.28071266 64.50976041 -66.1974174 66.62708607 -68.375 69 C-69.14585937 69.845625 -69.91671875 70.69125 -70.7109375 71.5625 C-72.17573934 73.122289 -73.67862969 74.64767465 -75.2265625 76.125 C-77.22614146 77.97483827 -77.22614146 77.97483827 -78 81 C-76.81917847 81.03758423 -76.81917847 81.03758423 -75.61450195 81.07592773 C-56.40861268 81.68839409 -37.20391081 82.32811157 -18 83 C-19.83135692 87.04919109 -22.46850472 89.3176945 -25.875 92.0625 C-27.06414493 93.04488726 -28.25160893 94.02931229 -29.4375 95.015625 C-30.03691406 95.51384766 -30.63632812 96.01207031 -31.25390625 96.52539062 C-37.99107792 102.21506022 -44.33729708 108.37854695 -50.7746582 114.40185547 C-51.426521 115.01174316 -52.07838379 115.62163086 -52.75 116.25 C-53.39606201 116.85473145 -54.04212402 117.45946289 -54.70776367 118.08251953 C-58.41733963 121.54721843 -62.16856311 124.94524825 -66.01171875 128.26171875 C-73.50993921 134.81713743 -80.74078807 141.68275053 -88 148.5 C-90.02077221 150.3951071 -92.04192515 152.28980615 -94.06347656 154.18408203 C-95.32690577 155.36882566 -96.58932394 156.55464868 -97.85058594 157.74169922 C-99.52091304 159.31184363 -101.19702706 160.87553506 -102.875 162.4375 C-103.82117188 163.32308594 -104.76734375 164.20867187 -105.7421875 165.12109375 C-108 167 -108 167 -110 167 C-110.226875 167.5775 -110.45375 168.155 -110.6875 168.75 C-112.34761639 171.59591381 -114.39187957 172.99841921 -117 175 C-118.67253516 176.66077744 -120.33801495 178.32866483 -122 180 C-129.63089629 187.35448903 -137.37733094 194.50846994 -145.66015625 201.125 C-147.63336672 202.70620372 -149.54227229 204.32747291 -151.4375 206 C-156.38586305 210.29343264 -161.73438109 214.10914859 -167 218 C-167.33 217.34 -167.66 216.68 -168 216 C-166.6875 213.375 -166.6875 213.375 -165 211 C-164.34 211 -163.68 211 -163 211 C-162.76925781 210.45214844 -162.53851563 209.90429688 -162.30078125 209.33984375 C-160.63189928 206.33786086 -158.51892884 204.0826802 -156.1875 201.5625 C-155.33542969 200.63566406 -154.48335937 199.70882812 -153.60546875 198.75390625 C-151.1141786 196.12068352 -148.56765272 193.55858101 -146 191 C-145.24891968 190.24891968 -144.49783936 189.49783936 -143.72399902 188.72399902 C-101 146 -101 146 -98.34802246 143.35583496 C-96.81643664 141.81915314 -95.30344595 140.26364286 -93.8125 138.6875 C-92 137 -92 137 -90 137 C-89.65388672 136.14728516 -89.65388672 136.14728516 -89.30078125 135.27734375 C-87.66878795 132.42013025 -85.67320933 130.71280628 -83.1875 128.5625 C-80.36441889 126.09383167 -77.58541756 123.65490584 -75 120.9375 C-73 119 -73 119 -71 119 C-70.74605469 118.40832031 -70.49210938 117.81664062 -70.23046875 117.20703125 C-68.86446788 114.7569027 -67.47063789 113.4640418 -65.3125 111.6875 C-62.54197828 109.34783699 -59.91090997 106.96738903 -57.375 104.375 C-54.38608898 101.35196899 -51.40499454 98.55374591 -48 96 C-47.01 96 -46.02 96 -45 96 C-45 95.01 -45 94.02 -45 93 C-45.65145996 93.00523682 -46.30291992 93.01047363 -46.97412109 93.01586914 C-59.72137286 93.10369688 -72.44780083 93.04433016 -85.1875 92.5625 C-86.26628418 92.52326416 -87.34506836 92.48402832 -88.45654297 92.44360352 C-93.70482394 92.22731223 -98.81873587 91.87209396 -104 91 C-100.3527812 86.64112875 -96.60135356 82.55093828 -92.5390625 78.578125 C-90.86576219 76.93238568 -90.86576219 76.93238568 -89.1875 74.5625 C-88.795625 74.046875 -88.40375 73.53125 -88 73 C-87.34 73 -86.68 73 -86 73 C-86 72.34 -86 71.68 -86 71 C-85.34 71 -84.68 71 -84 71 C-83.73832031 70.42121094 -83.47664063 69.84242188 -83.20703125 69.24609375 C-81.92707261 66.86429369 -80.48643946 65.07683354 -78.6875 63.0625 C-78.11386719 62.41410156 -77.54023438 61.76570313 -76.94921875 61.09765625 C-73.84876688 57.76109782 -70.59319355 54.5853193 -67.3515625 51.38671875 C-62.68130313 46.76329579 -58.11065243 42.11435234 -53.828125 37.125 C-51.47619924 34.39113758 -49.09101853 31.68843411 -46.6875 29 C-45.84574219 28.05125 -45.00398437 27.1025 -44.13671875 26.125 C-42 24 -42 24 -40 24 C-39.731875 23.360625 -39.46375 22.72125 -39.1875 22.0625 C-38 20 -38 20 -35 19 C-33.89163577 17.11683841 -33.89163577 17.11683841 -33 15 C-32.34 14.01 -31.68 13.02 -31 12 C-52.23155348 14.657766 -52.23155348 14.657766 -70.125 24.0625 C-71.053125 25.5165625 -71.053125 25.5165625 -72 27 C-73.6875 28.875 -73.6875 28.875 -75 30 C-75.66 30 -76.32 30 -77 30 C-77.226875 30.556875 -77.45375 31.11375 -77.6875 31.6875 C-78.99722285 33.99510692 -80.47698805 35.62789566 -82.38671875 37.453125 C-84.42482888 39.40734197 -86.39366259 41.42578433 -88.375 43.4375 C-91.15994654 46.23176074 -93.97859679 48.90101335 -97 51.4375 C-99.98929966 53.65389933 -99.98929966 53.65389933 -101 56 C-101.66 56 -102.32 56 -103 56 C-103.33 56.99 -103.66 57.98 -104 59 C-104.66 59 -105.32 59 -106 59 C-106 59.66 -106 60.32 -106 61 C-107.6796875 62.62109375 -107.6796875 62.62109375 -109.875 64.4375 C-112.46193722 66.58400884 -114.11184374 68.16776562 -116 71 C-116.66 71 -117.32 71 -118 71 C-118.99 72.98 -118.99 72.98 -120 75 C-120.66 75 -121.32 75 -122 75 C-122.495 76.485 -122.495 76.485 -123 78 C-125.2497814 80.49300101 -127.1476626 82.58600755 -130.1875 84.0625 C-132.15130011 84.84913027 -132.15130011 84.84913027 -132.88452148 86.82202148 C-134.16325752 89.31876129 -135.64407345 90.84065917 -137.66015625 92.78515625 C-138.37107422 93.48060547 -139.08199219 94.17605469 -139.81445312 94.89257812 C-140.55630859 95.60865234 -141.29816406 96.32472656 -142.0625 97.0625 C-143.53713498 98.48615365 -145.00740572 99.91434578 -146.47265625 101.34765625 C-147.12500244 101.97679932 -147.77734863 102.60594238 -148.44946289 103.25415039 C-150.22691833 105.02487465 -150.22691833 105.02487465 -151 108 C-149.88560547 107.97744141 -148.77121094 107.95488281 -147.62304688 107.93164062 C-142.70472325 107.93433915 -137.90651544 108.48604853 -133.03125 109.09375 C-131.64987854 109.26022034 -131.64987854 109.26022034 -130.24060059 109.43005371 C-127.32650752 109.78226046 -124.41326583 110.14102166 -121.5 110.5 C-119.51307363 110.74132053 -117.52609489 110.98221028 -115.5390625 111.22265625 C-110.69208851 111.81012445 -105.84586654 112.4034685 -101 113 C-101.95281184 114.27540026 -102.90631516 115.55028394 -103.86010742 116.82495117 C-104.39101486 117.53495773 -104.9219223 118.24496429 -105.46891785 118.97648621 C-107.35759718 121.47260875 -109.31944703 123.89906674 -111.3125 126.3125 C-112.08722656 127.25351563 -112.86195313 128.19453125 -113.66015625 129.1640625 C-114.43230469 130.09992188 -115.20445312 131.03578125 -116 132 C-118.55962282 135.12057147 -121.11485617 138.24470582 -123.66796875 141.37060547 C-124.63850174 142.5578007 -125.60998495 143.7442193 -126.58203125 144.93017578 C-128.30678876 147.03507381 -130.02856564 149.14238374 -131.75 151.25 C-132.56452637 152.24229614 -132.56452637 152.24229614 -133.39550781 153.25463867 C-135.98108989 156.42543317 -138.44958694 159.61035176 -140.765625 162.984375 C-141.50296875 163.97953125 -142.2403125 164.9746875 -143 166 C-143.66 166 -144.32 166 -145 166 C-145.24234375 166.55171875 -145.4846875 167.1034375 -145.734375 167.671875 C-147.27611171 170.50790919 -149.17387281 172.77842001 -151.25 175.25 C-152.054375 176.22582031 -152.85875 177.20164062 -153.6875 178.20703125 C-155.03522927 179.83477859 -156.38726523 181.45901302 -157.75 183.07421875 C-161.38036956 187.58381844 -163.53830784 192.20851031 -165.6484375 197.5859375 C-167.18946724 201.47859644 -168.86644493 205.29810748 -170.5625 209.125 C-172.84976479 214.31528469 -175.03992435 219.52774752 -177.12109375 224.8046875 C-180.09050883 232.2216265 -183.59240751 239.40901665 -187.00244141 246.63012695 C-189.30450181 251.50820045 -191.56831781 256.40102405 -193.78125 261.3203125 C-194.68229275 263.30145137 -195.60179868 265.27421659 -196.53125 267.2421875 C-199.44044654 273.41709977 -202.00757385 279.46926983 -204 286 C-204.33 286 -204.66 286 -205 286 C-204.48415822 278.81506094 -202.77449831 272.70693447 -200.375 265.9375 C-197.50852144 257.61652592 -194.84564909 249.27755071 -192.4375 240.8125 C-189.50490445 230.54421897 -186.24479085 220.41543916 -182.78515625 210.31347656 C-181.72484944 207.18926409 -180.70470929 204.05213235 -179.68847656 200.91333008 C-179 199 -179 199 -177.5 196.125 C-176.10767145 193.22431552 -175.53624795 190.92918201 -174.875 187.8125 C-173.35106023 181.93898214 -170.41590276 178.31748618 -166.45703125 173.80859375 C-164.00489499 171.00559539 -161.77695405 168.11824961 -159.5625 165.125 C-156.41312177 160.88566304 -153.22862942 156.67892185 -150 152.5 C-142.78732149 143.14666768 -135.71141702 133.72170284 -129 124 C-129.80542236 123.94521484 -130.61084473 123.89042969 -131.44067383 123.83398438 C-140.44113457 123.20795388 -149.43003367 122.48455513 -158.41772461 121.69775391 C-160.72286392 121.49691892 -163.0284087 121.30122288 -165.33398438 121.10546875 C-166.80992326 120.97687692 -168.28583581 120.84798237 -169.76171875 120.71875 C-170.44602463 120.661427 -171.13033051 120.604104 -171.83537292 120.54504395 C-174.74055315 120.2854855 -177.21866784 119.92711072 -180 119 C-178.37426588 110.04803312 -167.99784522 102.81156016 -161.75512695 96.56982422 C-160.16783666 94.9803091 -158.58876447 93.38290343 -157.00976562 91.78515625 C-156.00048793 90.77295074 -154.99073996 89.76121389 -153.98046875 88.75 C-152.61764771 87.38101563 -152.61764771 87.38101563 -151.22729492 85.984375 C-149 84 -149 84 -147 84 C-146.7525 83.42765625 -146.505 82.8553125 -146.25 82.265625 C-144.80683801 79.64989389 -143.11783778 77.85226544 -141 75.75 C-139.948125 74.69039062 -139.948125 74.69039062 -138.875 73.609375 C-137 72 -137 72 -135 72 C-134.73173904 71.40642197 -134.46347809 70.81284393 -134.18708801 70.20127869 C-132.99047273 67.9823331 -131.7889653 66.54701227 -130.0065918 64.77954102 C-129.40223801 64.17533829 -128.79788422 63.57113556 -128.17521667 62.94862366 C-127.52313736 62.30686691 -126.87105804 61.66511017 -126.19921875 61.00390625 C-125.52582962 60.33334702 -124.85244049 59.66278778 -124.15864563 58.97190857 C-122.00625258 56.83069241 -119.84702262 54.69652308 -117.6875 52.5625 C-116.24498324 51.13001983 -114.80292078 49.69708203 -113.36132812 48.26367188 C-110.70422501 45.62287978 -108.04451765 42.98477364 -105.3815918 40.34985352 C-99.85636978 34.88361489 -99.85636978 34.88361489 -94.4375 29.3125 C-92.30387276 27.28828954 -90.69176935 26.09664677 -88 25 C-88 24.34 -88 23.68 -88 23 C-86.42578125 21.44921875 -86.42578125 21.44921875 -84.3125 19.6875 C-80.1827472 16.16956243 -76.29980184 12.65429325 -72.9375 8.375 C-70.14609363 4.95327607 -68.34278527 3.21204086 -63.8815918 2.50756836 C-62.66640869 2.45221924 -61.45122559 2.39687012 -60.19921875 2.33984375 C-59.20183937 2.28762161 -59.20183937 2.28762161 -58.18431091 2.23434448 C-56.01912026 2.12306262 -53.85355287 2.03033084 -51.6875 1.9375 C-48.68848064 1.78995155 -45.68995999 1.63325396 -42.69140625 1.4765625 C-41.94679138 1.43894302 -41.20217651 1.40132355 -40.43499756 1.36256409 C-33.09201027 0.98049332 -25.78036184 0.32348047 -18.47143555 -0.47875977 C-12.19456171 -1.10420259 -6.25776561 -0.75483646 0 0 Z " fill="#080705" transform="translate(294,83)"/>
<path d="M0 0 C-0.59950296 3.68266103 -1.24758891 7.34543185 -2 11 C-2.66 11 -3.32 11 -4 11 C-4.33 11.99 -4.66 12.98 -5 14 C-7.14550781 15.42626953 -7.14550781 15.42626953 -9.953125 16.8828125 C-10.96503906 17.41003906 -11.97695313 17.93726563 -13.01953125 18.48046875 C-14.08558594 19.02316406 -15.15164063 19.56585938 -16.25 20.125 C-17.30058594 20.67542969 -18.35117187 21.22585938 -19.43359375 21.79296875 C-28.02319412 26.22385259 -28.02319412 26.22385259 -33 27 C-33 27.66 -33 28.32 -33 29 C-33.69222656 29.268125 -34.38445312 29.53625 -35.09765625 29.8125 C-44.55447495 33.60021131 -53.83469297 38.07393249 -62.44140625 43.5546875 C-65.14443624 45.08158994 -67.90415744 46.08735023 -70.81835938 47.13818359 C-74.79045598 48.70728621 -78.49770826 50.78387314 -82.25 52.8125 C-83.93049873 53.7092538 -85.61148786 54.60508919 -87.29296875 55.5 C-88.10040527 55.93054688 -88.9078418 56.36109375 -89.73974609 56.8046875 C-94.44749103 59.29433097 -99.22429567 61.64436773 -104 64 C-105.58385144 64.79062961 -107.16719026 65.58228702 -108.75 66.375 C-111.80791751 67.90643681 -114.86903203 69.43113579 -117.93359375 70.94921875 C-119.351565 71.65364079 -120.76953375 72.35806789 -122.1875 73.0625 C-123.18571777 73.55532471 -123.18571777 73.55532471 -124.20410156 74.05810547 C-124.85217773 74.38053223 -125.50025391 74.70295898 -126.16796875 75.03515625 C-126.80653809 75.35242676 -127.44510742 75.66969727 -128.10302734 75.99658203 C-130.02597379 77.01373903 -131.83556106 78.14993659 -133.67578125 79.30859375 C-137 81 -137 81 -139.69921875 81 C-142.55133182 79.76037191 -143.8254561 78.39578409 -145.8125 76 C-150.75041804 70.24047879 -155.9261543 64.74147585 -161.15161133 59.2421875 C-164.47288626 55.73223633 -167.76514063 52.19852726 -170.9921875 48.6015625 C-171.57081543 47.95783691 -172.14944336 47.31411133 -172.74560547 46.65087891 C-174 45 -174 45 -174 43 C-175.485 42.505 -175.485 42.505 -177 42 C-178.61770388 40.24327469 -180.04034929 38.38527709 -181.5 36.49609375 C-183.00092071 34.64690787 -183.00092071 34.64690787 -186 35 C-188.07706482 37.78170896 -188.07706482 37.78170896 -190 41 C-190.556875 41.70125 -191.11375 42.4025 -191.6875 43.125 C-193.06860836 45.09801195 -193.57964147 46.64599224 -194 49 C-194.66 49 -195.32 49 -196 49 C-196.33 48.34 -196.66 47.68 -197 47 C-198.32 47.66 -199.64 48.32 -201 49 C-200.06692579 47.55962331 -199.12834923 46.12281015 -198.1875 44.6875 C-197.66542969 43.88699219 -197.14335937 43.08648437 -196.60546875 42.26171875 C-195 40 -195 40 -193.36328125 38.39453125 C-191.73435284 36.93147582 -191.73435284 36.93147582 -191 34 C-190.01 33.505 -190.01 33.505 -189 33 C-188.5875 32.29875 -188.175 31.5975 -187.75 30.875 C-185.55681364 27.27190813 -183.04003248 23.93841579 -180 21 C-179.34 21 -178.68 21 -178 21 C-177.76539063 20.43796875 -177.53078125 19.8759375 -177.2890625 19.296875 C-175.69337 16.45364109 -173.71075457 14.51901873 -171.375 12.25 C-170.55773437 11.45078125 -169.74046875 10.6515625 -168.8984375 9.828125 C-168.27195313 9.22484375 -167.64546875 8.6215625 -167 8 C-164.15805134 9.28998155 -162.12188057 10.63637587 -159.94140625 12.86328125 C-159.39033203 13.42080078 -158.83925781 13.97832031 -158.27148438 14.55273438 C-157.70751953 15.13345703 -157.14355469 15.71417969 -156.5625 16.3125 C-156.00240234 16.88162109 -155.44230469 17.45074219 -154.86523438 18.03710938 C-153.76190391 19.15846391 -152.66235434 20.28355297 -151.56689453 21.41259766 C-150.1103966 22.88815851 -148.60183989 24.31183076 -147.08984375 25.73046875 C-145 28 -145 28 -145 31 C-144.17435547 31.33451172 -144.17435547 31.33451172 -143.33203125 31.67578125 C-140.24846367 33.42675179 -138.13203462 35.62268437 -135.6875 38.1875 C-134.78386719 39.10917969 -133.88023437 40.03085937 -132.94921875 40.98046875 C-131 44 -131 44 -131.140625 47.6171875 C-131.42421875 48.73351562 -131.7078125 49.84984375 -132 51 C-132.17660156 51.73089844 -132.35320312 52.46179688 -132.53515625 53.21484375 C-133.0234375 54.80989583 -133.51171875 56.40494792 -134 58 C-137.24271506 57.4409112 -138.93057424 56.5867822 -141 54 C-141 53.34 -141 52.68 -141 52 C-142.32 51.34 -143.64 50.68 -145 50 C-145 49.34 -145 48.68 -145 48 C-145.83337891 47.67128906 -145.83337891 47.67128906 -146.68359375 47.3359375 C-149.76646839 45.55795583 -151.6956908 43.28112461 -154.0625 40.625 C-154.5363916 40.10131836 -155.0102832 39.57763672 -155.49853516 39.03808594 C-158.0314312 36.23562633 -160.52191069 33.40014961 -162.98828125 30.5390625 C-163.71422485 29.71220947 -163.71422485 29.71220947 -164.45483398 28.86865234 C-165.38440975 27.8091565 -166.30246974 26.73941768 -167.20727539 25.65869141 C-169.38685677 23.18963114 -170.48469336 22.05995257 -173.8203125 21.671875 C-174.53960937 21.78015625 -175.25890625 21.8884375 -176 22 C-176.42853406 26.06054161 -176.42853406 26.06054161 -173.796875 28.62548828 C-172.79106605 29.61715199 -171.77468755 30.59816849 -170.75 31.5703125 C-170.21729492 32.09261444 -169.68458984 32.61491638 -169.13574219 33.15304565 C-167.43303157 34.82012728 -165.71756463 36.47323693 -164 38.125 C-162.28423693 39.78558613 -160.57144536 41.44897554 -158.86425781 43.11837769 C-157.8013032 44.1567559 -156.73304956 45.18974156 -155.65917969 46.21682739 C-154.40164083 47.44018139 -153.19539336 48.71585292 -152 50 C-152 50.66 -152 51.32 -152 52 C-151.46503906 52.20625 -150.93007812 52.4125 -150.37890625 52.625 C-147.02052273 54.56613464 -144.611881 57.21733118 -141.9375 60 C-137.75878134 64.32816662 -137.75878134 64.32816662 -133 68 C-130.70285813 68.02639829 -130.70285813 68.02639829 -128.3125 67.625 C-126.1778125 67.315625 -126.1778125 67.315625 -124 67 C-126.97 67 -129.94 67 -133 67 C-133.33 66.01 -133.66 65.02 -134 64 C-133.01 64 -132.02 64 -131 64 C-131 63.34 -131 62.68 -131 62 C-127.86501708 60.14223235 -125.62528568 59.79859524 -122 60 C-122 59.34 -122 58.68 -122 58 C-121.17822266 57.70609375 -121.17822266 57.70609375 -120.33984375 57.40625 C-114.02512407 55.02411184 -108.16856072 52.06572229 -102.26733398 48.81835938 C-98.90169722 46.97359055 -95.56900316 45.39873841 -92 44 C-89.52901303 42.81191823 -87.07360726 41.60734064 -84.625 40.375 C-83.57868408 39.85147949 -83.57868408 39.85147949 -82.51123047 39.31738281 C-77.66788411 36.87988883 -72.88974112 34.33695763 -68.125 31.75 C-64.24192184 29.64604514 -60.3985859 27.66098163 -56.25 26.125 C-50.2006611 23.87432004 -44.60636229 20.69893732 -38.95019531 17.61572266 C-35.37400698 15.68582177 -31.89553429 13.88759355 -28.0546875 12.546875 C-22.01517444 10.40408886 -16.5992406 6.95932784 -11.0703125 3.76367188 C-10.21695313 3.28091797 -9.36359375 2.79816406 -8.484375 2.30078125 C-7.33533691 1.63816284 -7.33533691 1.63816284 -6.16308594 0.9621582 C-4 0 -4 0 0 0 Z " fill="#F2F2F2" transform="translate(327,277)"/>
<path d="M0 0 C-0.08695958 2.60578866 -0.19381408 5.2081279 -0.3125 7.8125 C-0.34633789 8.91948242 -0.34633789 8.91948242 -0.38085938 10.04882812 C-0.6506525 15.46921718 -0.6506525 15.46921718 -2.2109375 17.83984375 C-4.51122195 19.33151292 -6.84085807 20.55933082 -9.3125 21.75 C-10.38113281 22.27078125 -11.44976562 22.7915625 -12.55078125 23.328125 C-13.68902344 23.87984375 -14.82726562 24.4315625 -16 25 C-18.33490354 26.16352096 -20.66822153 27.33022878 -23 28.5 C-27.375 30.6875 -31.75 32.875 -36.125 35.0625 C-37.1046875 35.55363281 -38.084375 36.04476562 -39.09375 36.55078125 C-40.98541963 37.4940735 -42.88108638 38.42940586 -44.78125 39.35546875 C-49.46570389 41.65265287 -54.07989986 44.02544681 -58.6171875 46.6015625 C-59.42333496 47.05821289 -60.22948242 47.51486328 -61.06005859 47.98535156 C-62.66381899 48.89876003 -64.26327199 49.81978098 -65.85791016 50.74902344 C-66.96465088 51.3798584 -66.96465088 51.3798584 -68.09375 52.0234375 C-68.75052734 52.40419434 -69.40730469 52.78495117 -70.08398438 53.17724609 C-72 54 -72 54 -76 54 C-76 54.66 -76 55.32 -76 56 C-76.60585937 56.21914063 -77.21171875 56.43828125 -77.8359375 56.6640625 C-83.3970498 58.76872962 -88.31315307 61.28141018 -93.35546875 64.41796875 C-99.22283571 67.92798887 -105.41280558 70.99297698 -111.75 73.5625 C-115.08649047 75.0382554 -117.9572889 76.82910836 -121.015625 78.796875 C-125.09415634 81.26968534 -129.35795087 82.9101276 -134 84 C-133.57372794 81.93515022 -133.13348551 79.87318179 -132.6875 77.8125 C-132.44386719 76.66394531 -132.20023438 75.51539063 -131.94921875 74.33203125 C-130.69422222 69.92663192 -129.50627292 67.02005504 -125.65234375 64.41015625 C-124.75644531 63.96542969 -123.86054688 63.52070313 -122.9375 63.0625 C-118.31352639 60.69248447 -113.88794552 58.15055901 -109.484375 55.39453125 C-107 54 -107 54 -103.796875 52.66796875 C-99.11709593 50.71721987 -94.84829778 48.08974449 -90.5 45.5 C-85.09114757 42.27861395 -79.80269548 39.4650309 -74 37 C-70.48529452 35.1683723 -67.02649259 33.23794238 -63.5625 31.3125 C-56.36488858 27.34680983 -49.14124844 23.49157079 -41.765625 19.8684082 C-36.9764624 17.50986779 -32.2657636 15.02493253 -27.5625 12.5 C-21.63126132 9.32869284 -15.64211519 6.31462824 -9.5625 3.4375 C-8.83426025 3.09074219 -8.10602051 2.74398437 -7.35571289 2.38671875 C-2.24908847 0 -2.24908847 0 0 0 Z " fill="#ECECEC" transform="translate(331,250)"/>
<path d="M0 0 C0.94617188 0.12117187 1.89234375 0.24234375 2.8671875 0.3671875 C4.20311615 0.53652816 5.53905446 0.70579266 6.875 0.875 C7.58446777 0.96595947 8.29393555 1.05691895 9.02490234 1.15063477 C12.96570739 1.64828055 16.90480087 2.0986393 20.859375 2.47265625 C21.6548877 2.55080566 22.45040039 2.62895508 23.27001953 2.70947266 C24.80653883 2.85825029 26.34399946 2.99768879 27.88232422 3.12646484 C32.51052216 3.58435991 35.90229172 4.62798275 40 7 C40 7.66 40 8.32 40 9 C38.68 9.33 37.36 9.66 36 10 C36.66475492 12.03541653 36.66475492 12.03541653 38 14 C40.11480046 14.73258337 40.11480046 14.73258337 42.63330078 14.82128906 C44.07456833 14.94096039 44.07456833 14.94096039 45.54495239 15.06304932 C46.58457123 15.12989929 47.62419006 15.19674927 48.6953125 15.265625 C49.75789276 15.34874939 50.82047302 15.43187378 51.91525269 15.51751709 C55.31742788 15.77953292 58.72086002 16.0150333 62.125 16.25 C64.42851654 16.42273948 66.73190495 16.59719668 69.03515625 16.7734375 C74.68876715 17.20225222 80.34363435 17.60930032 86 18 C86 18.66 86 19.32 86 20 C85.34 20 84.68 20 84 20 C83.58814453 20.87023804 83.58814453 20.87023804 83.16796875 21.75805664 C82.0248478 23.95230406 80.76147197 25.86808849 79.3125 27.87109375 C78.78342041 28.60408691 78.25434082 29.33708008 77.70922852 30.09228516 C77.14518311 30.86620605 76.5811377 31.64012695 76 32.4375 C75.41984131 33.23720215 74.83968262 34.0369043 74.24194336 34.86083984 C69.9767384 40.71692699 65.61254028 46.4863674 61.16796875 52.20703125 C58.40061174 55.77218487 55.69646316 59.3810626 53 63 C52.1646875 61.9171875 52.1646875 61.9171875 51.3125 60.8125 C49.10165153 58.03084947 49.10165153 58.03084947 46.8125 55.8125 C40.16842133 49.16842133 34.15510424 42.01811497 28.25 34.71875 C26.06498431 32.07852271 23.80828609 29.5327028 21.5 27 C17.55041976 22.66509486 13.83173621 18.17930835 10.1484375 13.6171875 C7.62660471 10.54513664 4.99558278 7.58776637 2.3125 4.65625 C1 3 1 3 0 0 Z " fill="#030303" transform="translate(72,192)"/>
<path d="M0 0 C1.83043729 1.43675122 3.26975242 2.84556117 4.76171875 4.6328125 C5.3546875 5.33277344 5.94765625 6.03273437 6.55859375 6.75390625 C7.285625 7.62144531 8.01265625 8.48898438 8.76171875 9.3828125 C10.30148771 11.19188476 11.84535431 12.99738301 13.390625 14.80175781 C14.4576711 16.04814479 15.5228284 17.29615169 16.5859375 18.54589844 C17.08222656 19.12758789 17.57851562 19.70927734 18.08984375 20.30859375 C18.53231445 20.82848877 18.97478516 21.34838379 19.43066406 21.8840332 C20.77152111 23.4391024 20.77152111 23.4391024 22.42871094 24.94995117 C23.76171875 26.3828125 23.76171875 26.3828125 23.76171875 28.3828125 C22.44171875 28.7128125 21.12171875 29.0428125 19.76171875 29.3828125 C19.76171875 28.7228125 19.76171875 28.0628125 19.76171875 27.3828125 C19.18421875 27.13144531 18.60671875 26.88007813 18.01171875 26.62109375 C15.47528912 25.22517675 13.78464161 23.6366966 11.76171875 21.5703125 C11.06046875 20.86390625 10.35921875 20.1575 9.63671875 19.4296875 C7.76171875 17.3828125 7.76171875 17.3828125 5.76171875 14.3203125 C3.98400281 12.16686805 3.98400281 12.16686805 1.74609375 12.3046875 C-0.75679768 12.56639428 -0.75679768 12.56639428 -4.23828125 13.3828125 C-4.23828125 15.0328125 -4.23828125 16.6828125 -4.23828125 18.3828125 C-3.65949219 18.63546875 -3.08070312 18.888125 -2.484375 19.1484375 C1.61785163 21.40287857 4.57390037 25.00599303 7.76171875 28.3828125 C8.31085938 28.95 8.86 29.5171875 9.42578125 30.1015625 C10.82421875 31.6328125 10.82421875 31.6328125 12.76171875 34.3828125 C12.6171875 36.4609375 12.6171875 36.4609375 11.76171875 38.3828125 C10.08984375 39.2890625 10.08984375 39.2890625 8.01171875 39.8828125 C4.97268393 40.85964512 3.56875786 41.54068959 1.01171875 43.6328125 C-1.23828125 45.3828125 -1.23828125 45.3828125 -3.1640625 45.23046875 C-5.80133362 44.15271389 -6.89823252 42.78301173 -8.67578125 40.5703125 C-10.63198327 38.22370073 -12.34386194 36.29834795 -14.73828125 34.3828125 C-17.67969616 32.02968057 -19.89603028 29.34332245 -22.32421875 26.4765625 C-24.89627369 23.66304934 -27.76010051 21.30181457 -30.734375 18.92578125 C-32.23828125 17.3828125 -32.23828125 17.3828125 -32.23828125 14.3828125 C-24.58250191 10.20199683 -16.88591524 6.09401726 -9.05078125 2.2578125 C-8.4280835 1.93868896 -7.80538574 1.61956543 -7.16381836 1.29077148 C-2.83687745 -0.78224544 -2.83687745 -0.78224544 0 0 Z " fill="#090909" transform="translate(93.23828125,237.6171875)"/>
<path d="M0 0 C-1.375 2 -1.375 2 -3 4 C-3.66 4 -4.32 4 -5 4 C-5.24621094 4.55429688 -5.49242187 5.10859375 -5.74609375 5.6796875 C-9.8859996 13.34044787 -16.6962402 19.83205856 -22.5234375 26.24609375 C-25.53167672 29.5912178 -28.49393143 32.97294539 -31.4375 36.375 C-32.21830933 37.26795776 -32.21830933 37.26795776 -33.01489258 38.17895508 C-35.44078305 40.99509923 -37.46169623 43.6157317 -39 47 C-40.1132163 48.14695013 -41.23293639 49.28839771 -42.38671875 50.39453125 C-46.10225809 54.09207767 -49.51319556 58.088559 -53 62 C-53.98806641 63.07894531 -53.98806641 63.07894531 -54.99609375 64.1796875 C-55.59550781 64.84226562 -56.19492188 65.50484375 -56.8125 66.1875 C-57.33457031 66.75855469 -57.85664063 67.32960938 -58.39453125 67.91796875 C-60.56691852 70.73520091 -62.23496779 73.91119363 -64 77 C-42.88 77 -21.76 77 0 77 C-0.33 77.66 -0.66 78.32 -1 79 C-9.28504409 78.89188759 -17.57000722 78.77913836 -25.85490894 78.66066074 C-29.70296983 78.60577346 -33.55103862 78.55241309 -37.39916992 78.50268555 C-41.12101203 78.4545314 -44.84277466 78.40217928 -48.56451988 78.34705925 C-49.97607093 78.32686413 -51.38764356 78.30811729 -52.79923439 78.29092598 C-60.91381175 78.19103858 -68.93162701 77.89650053 -77 77 C-76.24100152 73.44343162 -75.24525911 71.93062541 -72.5625 69.4375 C-70.30473183 67.32113693 -68.73987477 65.60981215 -67 63 C-66.34 63 -65.68 63 -65 63 C-64.773125 62.443125 -64.54625 61.88625 -64.3125 61.3125 C-63.00895127 59.01577129 -61.5325168 57.44500108 -59.63671875 55.62890625 C-57.42587736 53.4286178 -55.34291126 51.12501722 -53.25 48.8125 C-52.47140625 47.95269531 -51.6928125 47.09289062 -50.890625 46.20703125 C-48.97415522 44.15018771 -48.97415522 44.15018771 -48 42 C-47.34 42 -46.68 42 -46 42 C-45.78859375 41.46890625 -45.5771875 40.9378125 -45.359375 40.390625 C-43.46974037 37.06747444 -40.8773674 34.49153158 -38.25 31.75 C-34.90729629 28.20642808 -31.64272249 24.72674322 -28.8125 20.75 C-25.40761566 15.98517664 -21.1902942 12.06590699 -17 8 C-16.0925 7.05125 -15.185 6.1025 -14.25 5.125 C-10.0219251 1.13181815 -5.79041753 -1.93013918 0 0 Z " fill="#5C9B9F" transform="translate(293,87)"/>
<path d="M0 0 C2.84194866 1.28998155 4.87811943 2.63637587 7.05859375 4.86328125 C7.88520508 5.69956055 7.88520508 5.69956055 8.72851562 6.55273438 C9.29248047 7.13345703 9.85644531 7.71417969 10.4375 8.3125 C11.27764648 9.16618164 11.27764648 9.16618164 12.13476562 10.03710938 C13.23809609 11.15846391 14.33764566 12.28355297 15.43310547 13.41259766 C16.8896034 14.88815851 18.39816011 16.31183076 19.91015625 17.73046875 C22 20 22 20 22 23 C22.82564453 23.33451172 22.82564453 23.33451172 23.66796875 23.67578125 C26.75153633 25.42675179 28.86796538 27.62268437 31.3125 30.1875 C32.21613281 31.10917969 33.11976563 32.03085937 34.05078125 32.98046875 C36 36 36 36 35.859375 39.6171875 C35.43398437 41.29167969 35.43398437 41.29167969 35 43 C34.82339844 43.73089844 34.64679688 44.46179688 34.46484375 45.21484375 C33.9765625 46.80989583 33.48828125 48.40494792 33 50 C29.75728494 49.4409112 28.06942576 48.5867822 26 46 C26 45.34 26 44.68 26 44 C24.68 43.34 23.36 42.68 22 42 C22 41.34 22 40.68 22 40 C21.16662109 39.67128906 21.16662109 39.67128906 20.31640625 39.3359375 C17.23353161 37.55795583 15.3043092 35.28112461 12.9375 32.625 C12.4636084 32.10131836 11.9897168 31.57763672 11.50146484 31.03808594 C8.9685688 28.23562633 6.47808931 25.40014961 4.01171875 22.5390625 C3.28577515 21.71220947 3.28577515 21.71220947 2.54516602 20.86865234 C1.61559025 19.8091565 0.69753026 18.73941768 -0.20727539 17.65869141 C-2.32560051 15.25902309 -3.50305459 14.07486265 -6.72265625 13.58984375 C-9.5051554 14.09097996 -10.19220151 14.87780178 -12 17 C-13.31963709 18.01800576 -14.65009646 19.02248365 -16 20 C-16.66 19.67 -17.32 19.34 -18 19 C-16.38405168 16.95880212 -14.7143618 14.95927063 -13 13 C-12.34 13 -11.68 13 -11 13 C-10.76539063 12.43796875 -10.53078125 11.8759375 -10.2890625 11.296875 C-8.69337 8.45364109 -6.71075457 6.51901873 -4.375 4.25 C-3.55773437 3.45078125 -2.74046875 2.6515625 -1.8984375 1.828125 C-0.95871094 0.92320312 -0.95871094 0.92320312 0 0 Z " fill="#F1F1F0" transform="translate(160,285)"/>
<path d="M0 0 C1.42518918 0.38222434 2.84438827 0.78727301 4.2578125 1.2109375 C5.77589713 1.62256032 7.29546857 2.02873505 8.81640625 2.4296875 C9.57808105 2.63207031 10.33975586 2.83445313 11.12451172 3.04296875 C15.60123292 4.11931772 20.15136587 4.57941423 24.72265625 5.09375 C27.3828125 5.5859375 27.3828125 5.5859375 29.3828125 7.5859375 C24.53428656 11.24926821 19.55524124 14.19476132 14.19921875 17.05859375 C8.12769024 20.35119797 2.28261382 24.02801826 -3.59301758 27.65478516 C-18.06743022 36.5859375 -18.06743022 36.5859375 -20.6171875 36.5859375 C-20.6171875 37.2459375 -20.6171875 37.9059375 -20.6171875 38.5859375 C-21.62523437 38.98683594 -22.63328125 39.38773437 -23.671875 39.80078125 C-27.6610807 41.51029743 -31.15155794 43.72969473 -34.7421875 46.1484375 C-38.56969812 48.71810027 -42.23506806 51.05632977 -46.6171875 52.5859375 C-38.09610051 43.88258127 -28.35483438 36.83407438 -18.41992188 29.86083984 C-16.62591262 28.59210795 -14.84634272 27.30547336 -13.0703125 26.01171875 C-5.46194759 20.48209603 2.29652003 15.39472937 10.3828125 10.5859375 C7.47753638 7.68066138 4.17182225 7.87329431 0.2578125 7.4609375 C-0.49628906 7.37457031 -1.25039062 7.28820312 -2.02734375 7.19921875 C-3.88975877 6.98704489 -5.75337681 6.78547987 -7.6171875 6.5859375 C-7.6171875 3.5859375 -7.6171875 3.5859375 -6.109375 1.296875 C-3.6171875 -0.4140625 -3.6171875 -0.4140625 0 0 Z " fill="#EDEDEC" transform="translate(230.6171875,222.4140625)"/>
<path d="M0 0 C0.66 0 1.32 0 2 0 C2 0.99 2 1.98 2 3 C3.57128662 3.12060791 3.57128662 3.12060791 5.17431641 3.24365234 C9.12959665 3.54847733 13.08438408 3.85934722 17.0390625 4.171875 C18.73783065 4.30531298 20.43672169 4.43719727 22.13574219 4.56738281 C32.49400997 5.3622912 42.73506151 6.36038813 53 8 C50.15361704 13.85368938 46.35675531 18.93290969 42.375 24.0625 C41.49214997 25.20309595 40.60933861 26.34372184 39.7265625 27.484375 C39.27700195 28.06380859 38.82744141 28.64324219 38.36425781 29.24023438 C36.58212112 31.53902487 34.80596782 33.84237599 33.03198242 36.14746094 C32.18454283 37.24811567 31.33576922 38.34774471 30.4855957 39.44628906 C27.64040586 43.13090356 24.89954656 46.87677587 22.25390625 50.70703125 C21.84011719 51.13371094 21.42632812 51.56039062 21 52 C20.01 52 19.02 52 18 52 C17.01 52.66 16.02 53.32 15 54 C16.37891225 49.97099076 18.22689016 47.27633622 21 44.0625 C24.55151064 39.82691027 27.87281389 35.51357866 31.0625 31 C31.68511719 30.12106079 31.68511719 30.12106079 32.3203125 29.22436523 C33.94751574 26.92160485 35.5691488 24.61499534 37.18701172 22.30566406 C38.2855573 20.74136493 39.39256514 19.18301867 40.5 17.625 C41.1290625 16.73039062 41.758125 15.83578125 42.40625 14.9140625 C42.9321875 14.28242188 43.458125 13.65078125 44 13 C44.66 13 45.32 13 46 13 C46 12.34 46 11.68 46 11 C44.7929541 11.02392822 44.7929541 11.02392822 43.56152344 11.04833984 C34.48298245 11.14721504 25.56388265 10.64250979 16.52734375 9.828125 C14.21176094 9.62158931 11.89516855 9.43155191 9.578125 9.2421875 C8.09887231 9.11296014 6.61970172 8.98278864 5.140625 8.8515625 C4.45115784 8.79626373 3.76169067 8.74096497 3.05133057 8.68399048 C-1.77069716 8.22930284 -1.77069716 8.22930284 -4 6 C-4 5.01 -4 4.02 -4 3 C-2.68 2.67 -1.36 2.34 0 2 C0 1.34 0 0.68 0 0 Z " fill="#E0E0E0" transform="translate(112,199)"/>
<path d="M0 0 C2.95810947 -0.27731281 4.4784144 -0.38727114 6.90942383 1.41772461 C7.50263428 2.07264893 8.09584473 2.72757324 8.70703125 3.40234375 C9.70500732 4.48467285 9.70500732 4.48467285 10.72314453 5.58886719 C11.41263184 6.36391602 12.10211914 7.13896484 12.8125 7.9375 C13.52519043 8.71641602 14.23788086 9.49533203 14.97216797 10.29785156 C19.175334 14.90603771 23.30090402 19.58292069 27.3984375 24.28515625 C28.92729623 25.92215377 30.49522312 27.30010252 32.25 28.6875 C35.28912373 31.24312677 37.2218045 33.44360899 39 37 C38.25 39.875 38.25 39.875 37 42 C36.34644531 41.43732422 36.34644531 41.43732422 35.6796875 40.86328125 C35.08414063 40.35152344 34.48859375 39.83976562 33.875 39.3125 C33.23304688 38.75949219 32.59109375 38.20648438 31.9296875 37.63671875 C30.31400095 36.26632874 28.66106946 34.94001332 27 33.625 C24.69709105 31.60995467 22.88512117 29.77139748 20.93359375 27.4609375 C16.54933862 22.39845505 11.81933454 17.7098088 7.0625 13 C6.18787109 12.12988281 5.31324219 11.25976562 4.41210938 10.36328125 C2.27702551 8.23986451 0.13962795 6.11883622 -2 4 C-1.34 2.68 -0.68 1.36 0 0 Z " fill="#0D0D0D" transform="translate(151,298)"/>
<path d="M0 0 C0.33 0.99 0.66 1.98 1 3 C1.57105469 3.28488281 2.14210937 3.56976563 2.73046875 3.86328125 C5.88327735 5.44239881 7.88583259 7.64143072 10.3125 10.1875 C11.21613281 11.10917969 12.11976563 12.03085937 13.05078125 12.98046875 C15 16 15 16 14.859375 19.6171875 C14.57578125 20.73351562 14.2921875 21.84984375 14 23 C13.82339844 23.73089844 13.64679688 24.46179688 13.46484375 25.21484375 C12.9765625 26.80989583 12.48828125 28.40494792 12 30 C11.01 29.67 10.02 29.34 9 29 C9.66 29 10.32 29 11 29 C11 26.03 11 23.06 11 20 C10.01 20 9.02 20 8 20 C6.81862919 18.61610848 5.64623153 17.2230745 4.53125 15.78515625 C2.22455778 13.0959768 -0.48932605 10.94368471 -3.23046875 8.7109375 C-5.07867287 6.9239322 -5.99940744 5.3501097 -7 3 C-7.66 3 -8.32 3 -9 3 C-9 2.34 -9 1.68 -9 1 C-5.29395893 2.23534702 -3.66251537 4.19735224 -1 7 C-0.67 7.33 -0.34 7.66 0 8 C0 5.36 0 2.72 0 0 Z " fill="#D5D5D5" transform="translate(181,305)"/>
<path d="M0 0 C0.66 0.33 1.32 0.66 2 1 C1.24074219 1.80824219 0.48148437 2.61648437 -0.30078125 3.44921875 C-1.30491813 4.52843129 -2.30881153 5.60787041 -3.3125 6.6875 C-3.81201172 7.21794922 -4.31152344 7.74839844 -4.82617188 8.29492188 C-7.10842391 10.75854493 -8.99708361 12.99512179 -10.73046875 15.89453125 C-11.35888672 16.93673828 -11.35888672 16.93673828 -12 18 C-12.66 18 -13.32 18 -14 18 C-14.37125 18.8353125 -14.37125 18.8353125 -14.75 19.6875 C-16.21606015 22.39971127 -18.02989471 24.63587365 -20 27 C-20 26.34 -20 25.68 -20 25 C-22.97 25 -25.94 25 -29 25 C-29.33 24.34 -29.66 23.68 -30 23 C-29.360625 22.896875 -28.72125 22.79375 -28.0625 22.6875 C-27.0415625 22.3471875 -27.0415625 22.3471875 -26 22 C-25.67 21.01 -25.34 20.02 -25 19 C-23.42578125 17.52734375 -23.42578125 17.52734375 -21.3125 15.9375 C-20.51328125 15.33421875 -19.7140625 14.7309375 -18.890625 14.109375 C-14.85225358 11.16245531 -10.78789789 8.25241962 -6.69848633 5.37670898 C-4.30854504 3.69010182 -2.07277355 2.07277355 0 0 Z " fill="#62A2A7" transform="translate(314,58)"/>
<path d="M0 0 C-0.99 3.63 -1.98 7.26 -3 11 C-4.32 11.33 -5.64 11.66 -7 12 C-9.578125 10.19921875 -9.578125 10.19921875 -12.25 7.6875 C-13.14203125 6.86636719 -14.0340625 6.04523438 -14.953125 5.19921875 C-17 3 -17 3 -17 1 C-11.29014022 0.25983299 -5.75813575 -0.10469338 0 0 Z " fill="#101010" transform="translate(110,284)"/>
<path d="M0 0 C0.66 0.33 1.32 0.66 2 1 C1.01 1.99 0.02 2.98 -1 4 C-0.34 4.66 0.32 5.32 1 6 C0.319375 6.2371875 -0.36125 6.474375 -1.0625 6.71875 C-4.63569636 8.27727182 -7.77187884 10.34102153 -11 12.5 C-14.86764394 15.08669349 -18.57656579 17.4585002 -23 19 C-16.02434826 11.84806825 -8.21998673 5.66265752 0 0 Z " fill="#DADADA" transform="translate(207,256)"/>
<path d="M0 0 C0 7.55441618 -2.18256936 11.56495005 -7 17 C-7.85279338 19.21735439 -7.85279338 19.21735439 -8 21 C-8.66 21 -9.32 21 -10 21 C-10.33 20.34 -10.66 19.68 -11 19 C-12.98 19.99 -12.98 19.99 -15 21 C-14.06692579 19.55962331 -13.12834923 18.12281015 -12.1875 16.6875 C-11.66542969 15.88699219 -11.14335937 15.08648437 -10.60546875 14.26171875 C-9 12 -9 12 -7.36328125 10.39453125 C-5.73435284 8.93147582 -5.73435284 8.93147582 -5 6 C-4.34 5.67 -3.68 5.34 -3 5 C-1.9590934 3.35857037 -0.95495674 1.69287785 0 0 Z " fill="#E9E7E1" transform="translate(141,305)"/>
<path d="M0 0 C-11.71875 5.859375 -11.71875 5.859375 -13.84765625 6.91601562 C-15.32221858 7.6586491 -16.78809248 8.41871696 -18.24609375 9.19335938 C-20.13526521 10.18577223 -22.06515404 11.09987601 -24 12 C-24.66 11.67 -25.32 11.34 -26 11 C-8.40567094 -2.50715085 -8.40567094 -2.50715085 0 0 Z " fill="#343534" transform="translate(274,289)"/>
<path d="M0 0 C0.66 0 1.32 0 2 0 C0.4152642 3.86328627 -2.05956887 6.28876923 -5.0078125 9.203125 C-5.49329559 9.6857782 -5.97877869 10.1684314 -6.47897339 10.66571045 C-8.02299866 12.19858562 -9.57384824 13.72434004 -11.125 15.25 C-12.17624009 16.29120361 -13.22702657 17.33286541 -14.27734375 18.375 C-16.84633004 20.92199464 -19.42148161 23.46265177 -22 26 C-22.66 25.67 -23.32 25.34 -24 25 C-22.41792503 23.24884832 -20.83438771 21.49905722 -19.25 19.75 C-18.36828125 18.77546875 -17.4865625 17.8009375 -16.578125 16.796875 C-11.97546012 11.80368098 -11.97546012 11.80368098 -10 10 C-9.34 10 -8.68 10 -8 10 C-7.67 9.01 -7.34 8.02 -7 7 C-5.37550757 5.29220027 -3.70779973 3.62449243 -2 2 C-1.34 1.34 -0.68 0.68 0 0 Z " fill="#558A87" transform="translate(227,103)"/>
<path d="M0 0 C0.33 0.66 0.66 1.32 1 2 C-4.34388455 8.33480354 -10.08833812 14.19539034 -16 20 C-16.66 19.67 -17.32 19.34 -18 19 C-16.90344712 17.68113228 -15.79746577 16.37009943 -14.6875 15.0625 C-14.07261719 14.33160156 -13.45773438 13.60070312 -12.82421875 12.84765625 C-11 11 -11 11 -8 10 C-8 9.34 -8 8.68 -8 8 C-6.625 6.375 -6.625 6.375 -5 5 C-4.34 5 -3.68 5 -3 5 C-2.690625 4.360625 -2.38125 3.72125 -2.0625 3.0625 C-1 1 -1 1 0 0 Z " fill="#578279" transform="translate(196,134)"/>
<path d="M0 0 C4.09363509 1.36454503 5.04178728 3.22862736 7 7 C6.25 9.875 6.25 9.875 5 12 C0.68393782 9.09326425 0.68393782 9.09326425 -1 7 C-0.875 3.1875 -0.875 3.1875 0 0 Z " fill="#171717" transform="translate(183,328)"/>
<path d="M0 0 C-6.09058073 5.53526308 -11.98489179 7.47712944 -20 9 C-16.86504984 5.46451566 -13.71685732 3.64948066 -9.4375 1.6875 C-7.73400391 0.88892578 -7.73400391 0.88892578 -5.99609375 0.07421875 C-3 -1 -3 -1 0 0 Z " fill="#484848" transform="translate(305,270)"/>
<path d="M0 0 C3.04948583 1.01649528 4.17253781 2.06334226 6.328125 4.33203125 C9.39375789 7.39050145 12.72010759 10.17294017 15.98828125 13.01171875 C16.65214844 13.66785156 17.31601563 14.32398438 18 15 C18 15.66 18 16.32 18 17 C13.91633665 15.33481689 10.93962215 12.45307123 7.75 9.5 C7.19570312 9.00113281 6.64140625 8.50226563 6.0703125 7.98828125 C4.6714992 6.7031646 3.33055746 5.35566232 2 4 C2 3.34 2 2.68 2 2 C1.34 2 0.68 2 0 2 C0 1.34 0 0.68 0 0 Z " fill="#474748" transform="translate(172,306)"/>
<path d="M0 0 C2.31 0 4.62 0 7 0 C2.73412126 4.54109672 -2.03612328 8.24735246 -7 12 C-7.33 11.01 -7.66 10.02 -8 9 C-7.34 9 -6.68 9 -6 9 C-5.67 8.01 -5.34 7.02 -5 6 C-3.66666667 5 -2.33333333 4 -1 3 C-0.67 2.01 -0.34 1.02 0 0 Z " fill="#4B4B4C" transform="translate(318,259)"/>
<path d="M0 0 C-0.99 0 -1.98 0 -3 0 C-2.67 0.66 -2.34 1.32 -2 2 C1.3 2 4.6 2 8 2 C7.67 2.66 7.34 3.32 7 4 C4.00849696 4.9332995 1.12160168 5.24379232 -2 5 C-5.0625 2.5625 -5.0625 2.5625 -7 0 C-3.86650268 -1.04449911 -3.01031744 -0.93423645 0 0 Z " fill="#424142" transform="translate(196,341)"/>
<path d="M0 0 C1.81454229 5.44362687 -0.2792335 10.07774995 -2.0625 15.3125 C-2.60583984 16.91544922 -2.60583984 16.91544922 -3.16015625 18.55078125 C-3.43730469 19.35902344 -3.71445313 20.16726563 -4 21 C-4.33 21 -4.66 21 -5 21 C-4.5003731 13.50559651 -2.56235522 7.04349737 0 0 Z " fill="#3F4035" transform="translate(94,348)"/>
<path d="M0 0 C0 0.99 0 1.98 0 3 C-2.30078125 4.859375 -2.30078125 4.859375 -5.3125 6.75 C-6.29863281 7.38421875 -7.28476563 8.0184375 -8.30078125 8.671875 C-11 10 -11 10 -14 9 C-13.24074219 8.51789063 -12.48148438 8.03578125 -11.69921875 7.5390625 C-10.70535156 6.90742188 -9.71148437 6.27578125 -8.6875 5.625 C-7.70136719 4.99851562 -6.71523437 4.37203125 -5.69921875 3.7265625 C-3.78712071 2.50348387 -1.8885966 1.2590644 0 0 Z " fill="#606060" transform="translate(243,299)"/>
<path d="M0 0 C0.33 0.99 0.66 1.98 1 3 C-0.78710586 3.86366822 -2.5798465 4.71568594 -4.375 5.5625 C-5.37273437 6.03816406 -6.37046875 6.51382812 -7.3984375 7.00390625 C-8.25695312 7.33261719 -9.11546875 7.66132813 -10 8 C-10.66 7.67 -11.32 7.34 -12 7 C-10.3790787 5.82767315 -8.75313167 4.6622923 -7.125 3.5 C-6.22007812 2.8503125 -5.31515625 2.200625 -4.3828125 1.53125 C-2 0 -2 0 0 0 Z " fill="#3D3E3D" transform="translate(260,293)"/>
<path d="M0 0 C0 3 0 3 -2.625 5.91796875 C-3.74249406 7.01550756 -4.86785643 8.10507895 -6 9.1875 C-6.57234375 9.74630859 -7.1446875 10.30511719 -7.734375 10.88085938 C-9.14962788 12.26073093 -10.57397155 13.63126734 -12 15 C-12 11.11566834 -10.82920314 10.32394504 -8.25 7.5 C-7.55390625 6.7265625 -6.8578125 5.953125 -6.140625 5.15625 C-4.19891408 3.20036601 -2.25069252 1.58156772 0 0 Z " fill="#608F84" transform="translate(267,106)"/>
<path d="M0 0 C0.66 0.33 1.32 0.66 2 1 C-0.97 4.3 -3.94 7.6 -7 11 C-7.33 10.34 -7.66 9.68 -8 9 C-8.66 8.67 -9.32 8.34 -10 8 C-6.7 5.36 -3.4 2.72 0 0 Z " fill="#99B39D" transform="translate(314,58)"/>
<path d="M0 0 C0.33 0 0.66 0 1 0 C1.59720137 5.82271337 -0.471757 9.9209404 -3 15 C-4.43410153 11.21180727 -3.51009497 8.93478721 -2.0625 5.25 C-1.49208984 3.77273438 -1.49208984 3.77273438 -0.91015625 2.265625 C-0.60980469 1.51796875 -0.30945313 0.7703125 0 0 Z " fill="#A39F83" transform="translate(88,366)"/>
<path d="M0 0 C-1.40844718 3.21524305 -3.10344786 5.32183868 -5.625 7.75 C-6.57246094 8.67039063 -6.57246094 8.67039063 -7.5390625 9.609375 C-8.02117187 10.06828125 -8.50328125 10.5271875 -9 11 C-9.66 10.67 -10.32 10.34 -11 10 C-2.81818182 0 -2.81818182 0 0 0 Z " fill="#538B8C" transform="translate(178,154)"/>
<path d="M0 0 C0 0.66 0 1.32 0 2 C-0.99 2.495 -0.99 2.495 -2 3 C-1.34 3.66 -0.68 4.32 0 5 C-1.65 5.66 -3.3 6.32 -5 7 C-5 6.01 -5 5.02 -5 4 C-5.66 3.67 -6.32 3.34 -7 3 C-2.25 0 -2.25 0 0 0 Z " fill="#BEBDBE" transform="translate(247,293)"/>
<path d="M0 0 C2.97 0 5.94 0 9 0 C5.99382731 3.00617269 3.17618402 2.59585316 -1 3 C-0.67 2.01 -0.34 1.02 0 0 Z " fill="#1C1C1D" transform="translate(189,338)"/>
<path d="M0 0 C0.99 0.66 1.98 1.32 3 2 C1.71475739 2.86380259 0.42157581 3.71580369 -0.875 4.5625 C-1.59429687 5.03816406 -2.31359375 5.51382812 -3.0546875 6.00390625 C-3.69664062 6.33261719 -4.33859375 6.66132813 -5 7 C-5.66 6.67 -6.32 6.34 -7 6 C-4.69 4.02 -2.38 2.04 0 0 Z " fill="#B1B0B1" transform="translate(191,268)"/>
<path d="M0 0 C0.33 0.99 0.66 1.98 1 3 C0.01 3.99 -0.98 4.98 -2 6 C-2.33 5.01 -2.66 4.02 -3 3 C-2.01 2.01 -1.02 1.02 0 0 Z M-5 4 C-4.34 4.33 -3.68 4.66 -3 5 C-4.32 5.99 -5.64 6.98 -7 8 C-6.34 6.68 -5.68 5.36 -5 4 Z " fill="#EDEDED" transform="translate(134,245)"/>
<path d="M0 0 C1.32 0.33 2.64 0.66 4 1 C1.03 3.475 1.03 3.475 -2 6 C-2.33 5.01 -2.66 4.02 -3 3 C-2.34 3 -1.68 3 -1 3 C-0.67 2.01 -0.34 1.02 0 0 Z " fill="#2F2F2F" transform="translate(313,265)"/>
<path d="M0 0 C0.66 0 1.32 0 2 0 C1.60196439 2.88575819 1.20990931 3.82189513 -1.0625 5.75 C-1.701875 6.1625 -2.34125 6.575 -3 7 C-3.66 6.67 -4.32 6.34 -5 6 C-3.38405168 3.95880212 -1.7143618 1.95927063 0 0 Z " fill="#EBE3D1" transform="translate(147,298)"/>
<path d="M0 0 C-3.3125 1.625 -3.3125 1.625 -7 3 C-7.99 2.34 -8.98 1.68 -10 1 C-3.71428571 -1.42857143 -3.71428571 -1.42857143 0 0 Z " fill="#818181" transform="translate(274,289)"/>
</svg>
